<svg id="Component_8_1" data-name="Component 8 – 1" xmlns="http://www.w3.org/2000/svg" width="272" height="210" viewBox="0 0 272 210">
  <circle id="Ellipse_6" data-name="Ellipse 6" cx="12" cy="12" r="12" fill="#fff"/>
  <circle id="Ellipse_6-2" data-name="Ellipse 6" cx="12" cy="12" r="12" transform="translate(62)" fill="#fff"/>
  <circle id="Ellipse_6-3" data-name="Ellipse 6" cx="12" cy="12" r="12" transform="translate(124)" fill="#fff"/>
  <circle id="Ellipse_6-4" data-name="Ellipse 6" cx="12" cy="12" r="12" transform="translate(186)" fill="#fff"/>
  <circle id="Ellipse_6-5" data-name="Ellipse 6" cx="12" cy="12" r="12" transform="translate(248)" fill="#fff"/>
  <circle id="Ellipse_6-6" data-name="Ellipse 6" cx="12" cy="12" r="12" transform="translate(0 62)" fill="#fff"/>
  <circle id="Ellipse_6-7" data-name="Ellipse 6" cx="12" cy="12" r="12" transform="translate(62 62)" fill="#fff"/>
  <circle id="Ellipse_6-8" data-name="Ellipse 6" cx="12" cy="12" r="12" transform="translate(124 62)" fill="#fff"/>
  <circle id="Ellipse_6-9" data-name="Ellipse 6" cx="12" cy="12" r="12" transform="translate(186 62)" fill="#fff"/>
  <circle id="Ellipse_6-10" data-name="Ellipse 6" cx="12" cy="12" r="12" transform="translate(248 62)" fill="#fff"/>
  <circle id="Ellipse_6-11" data-name="Ellipse 6" cx="12" cy="12" r="12" transform="translate(0 124)" fill="#fff"/>
  <circle id="Ellipse_6-12" data-name="Ellipse 6" cx="12" cy="12" r="12" transform="translate(62 124)" fill="#fff"/>
  <circle id="Ellipse_6-13" data-name="Ellipse 6" cx="12" cy="12" r="12" transform="translate(124 124)" fill="#fff"/>
  <circle id="Ellipse_6-14" data-name="Ellipse 6" cx="12" cy="12" r="12" transform="translate(186 124)" fill="#fff"/>
  <circle id="Ellipse_6-15" data-name="Ellipse 6" cx="12" cy="12" r="12" transform="translate(248 124)" fill="#fff"/>
  <circle id="Ellipse_6-16" data-name="Ellipse 6" cx="12" cy="12" r="12" transform="translate(0 186)" fill="#fff"/>
  <circle id="Ellipse_6-17" data-name="Ellipse 6" cx="12" cy="12" r="12" transform="translate(62 186)" fill="#fff"/>
  <circle id="Ellipse_6-18" data-name="Ellipse 6" cx="12" cy="12" r="12" transform="translate(124 186)" fill="#fff"/>
  <circle id="Ellipse_6-19" data-name="Ellipse 6" cx="12" cy="12" r="12" transform="translate(186 186)" fill="#fff"/>
  <circle id="Ellipse_6-20" data-name="Ellipse 6" cx="12" cy="12" r="12" transform="translate(248 186)" fill="#fff"/>
</svg>
